<?xml version="1.0" standalone="yes"?>
<svg xmlns="http://www.w3.org/2000/svg" width="839" height="144" font-size="14" font-family="Microsoft YaHei">

  <rect width="100%" height="100%" fill="#FFF" />

  <svg x="0" y="0">
    <text x="10" y="24">4 bytes</text>
    <text x="100" y="24">4 bytes</text>
    <text x="202" y="24">2 bytes</text>
    <text x="323" y="24">不固定</text>
    <text x="394" y="24">1 bytes</text>
    <text x="505" y="24">不固定</text>
    <text x="566" y="24">不固定</text>
    <text x="647" y="24">8 bytes</text>
    <text x="730" y="24">1 bytes</text>
    <text x="789" y="24">不固定</text>
  </svg>
  <svg x="0" y="36">
    <rect x="0" width="90" height="36" fill="#d82727" />
    <text x="10" y="24">KeyLength</text>

    <rect x="91" width="100" height="36" fill="#8d288d" />
    <text x="100" y="24">ValueLength</text>

    <rect x="192" width="120" height="36" fill="#FF7D00" />
    <text x="202" y="24">RowLength</text>

    <rect x="313" width="70" height="36" fill="#FF7D00" />
    <text x="323" y="24">Row</text>

    <rect x="384" width="110" height="36" fill="#dbdf13" />
    <text x="394" y="24">FamilyLength</text>

    <rect x="495" width="60" height="36" fill="#dbdf13" />
    <text x="505" y="24">Family</text>

    <rect x="556" width="80" height="36" fill="#17d667" />
    <text x="566" y="24">Qualifier</text>

    <rect x="637" width="90" height="36" fill="#4320df" />
    <text x="647" y="24">Timestamp</text>

    <rect x="728" width="50" height="36" fill="#00c3ff" />
    <text x="738" y="24">Type</text>

    <rect x="779" width="60" height="36" fill="#8d288d" />
    <text x="789" y="24">Value</text>
  </svg>
  <svg x="0" y="72">
    <rect x="192" width="586" height="36" fill="#d82727" />
    <text x="500" y="24">Key</text>
  </svg>
  <line x1="40" y1="72" x2="40" y2="90" stroke="#d82727" />
  <line x1="40" y1="90" x2="240" y2="90" stroke="#d82727" />

  <line x1="120" y1="72" x2="120" y2="132" stroke="#8d288d" />
  <line x1="810" y1="72" x2="810" y2="132" stroke="#8d288d" />
  <line x1="120" y1="132" x2="810" y2="132" stroke="#8d288d" />
</svg>